HIERARCHY
ROOT ui
{
	 OFFSET 0 0 0
	 CHANNELS 3 XPosition YPosition Z Position
	 EndSite
	 {
	 OFFSET 0 -1 0
	 }
}
ROOT li
{
	 OFFSET 0 0 0
	 CHANNELS 3 XPosition YPosition Z Position
	 EndSite
	 {
	 OFFSET 0 -1 0
	 }
}
ROOT ul
{
	 OFFSET 0 0 0
	 CHANNELS 3 XPosition YPosition Z Position
	 EndSite
	 {
	 OFFSET 0 -1 0
	 }
}
ROOT ll
{
	 OFFSET 0 0 0
	 CHANNELS 3 XPosition YPosition Z Position
	 EndSite
	 {
	 OFFSET 0 -1 0
	 }
}
ROOT tt
{
	 OFFSET 0 0 0
	 CHANNELS 3 XPosition YPosition Z Position
	 EndSite
	 {
	 OFFSET 0 -1 0
	 }
}
ROOT tb
{
	 OFFSET 0 0 0
	 CHANNELS 3 XPosition YPosition Z Position
	 EndSite
	 {
	 OFFSET 0 -1 0
	 }
}
ROOT td
{
	 OFFSET 0 0 0
	 CHANNELS 3 XPosition YPosition Z Position
	 EndSite
	 {
	 OFFSET 0 -1 0
	 }
}
ROOT v
{
	 OFFSET 0 0 0
	 CHANNELS 3 XPosition YPosition Z Position
	 EndSite
	 {
	 OFFSET 0 -1 0
	 }
}
ROOT bn
{
	 OFFSET 0 0 0
	 CHANNELS 3 XPosition YPosition Z Position
	 EndSite
	 {
	 OFFSET 0 -1 0
	 }
}
MOTION
Frames: 19
Frame Time: 0.002
0.009424702644348144	0.003774770975112915	0		0.57107763671875	-2.54580078125	0		-1.0321063232421874	0.2754404296875	0		-0.5718807373046875	-2.916861572265625	0		2.063677490234375	-1.0592237548828125	0		3.533773681640625	-0.832460205078125	0		4.75675146484375	-0.4604472961425781	0		5.90194482421875	0.38662521362304686	0		-0.173259521484375	5.90767431640625	0		
0.009794936180114747	0.0036963469982147215	0		0.61345703125	-2.5444326171875	0		-0.9657271728515625	0.2755025634765625	0		-0.5216218872070313	-2.924591552734375	0		2.077460205078125	-1.027486083984375	0		3.50933837890625	-0.8172308349609375	0		4.75506689453125	-0.46452410888671875	0		5.9023173828125	0.3865158386230469	0		-0.18897483825683595	5.89880712890625	0		
-0.0229348087310791	-0.0019640250205993654	0		0.556798095703125	-2.54378125	0		-0.9804180908203125	0.27260980224609377	0		-0.5663882446289062	-2.932092529296875	0		2.073497314453125	-0.974526611328125	0		3.48956494140625	-0.8260750122070313	0		4.72626953125	-0.4752549743652344	0		5.89345556640625	0.37051876831054686	0		-0.18860577392578126	5.89871435546875	0		
0.007414124011993408	5.347049832344056E-4	0		0.6100337524414062	-2.549584716796875	0		-0.9841572875976563	0.2685572814941406	0		-0.5371907348632813	-2.940578369140625	0		2.07846240234375	-0.9246962890625	0		3.478085693359375	-0.8100355834960937	0		4.71762060546875	-0.47225686645507814	0		5.8767705078125	0.37061907958984375	0		-0.15617665100097655	5.90618701171875	0		
-0.02640476608276367	-0.00614045000076294	0		0.5593970336914063	-2.5420390625	0		-0.9838870239257812	0.26843685913085935	0		-0.563052978515625	-2.950357421875	0		2.056178955078125	-0.8905215454101563	0		3.466565673828125	-0.7940050659179687	0		4.71789013671875	-0.47238372802734374	0		5.8819091796875	0.36042620849609375	0		-0.223064697265625	5.8939453125	0		
0.007905594825744629	2.7889001369476316E-4	0		0.5995369262695313	-2.548697021484375	0		-0.9745614624023438	0.27618368530273435	0		-0.56485693359375	-2.95246533203125	0		2.0461226806640624	-0.8355159301757813	0		3.461892578125	-0.7860737915039062	0		4.695126953125	-0.4712156066894531	0		5.87823583984375	0.3683448486328125	0		-0.1405367431640625	5.91673388671875	0		
-0.014884180068969726	0.0034346370697021485	0		0.5809340209960937	-2.531593994140625	0		-0.9943781127929687	0.27729885864257814	0		-0.5368173217773438	-2.96297802734375	0		2.052751220703125	-0.8007401733398437	0		3.45616796875	-0.7781363525390625	0		4.68633642578125	-0.4682366638183594	0		5.8742998046875	0.36026089477539064	0		-0.1895818634033203	5.9012314453125	0		
0.004136304855346679	-0.003968898057937622	0		0.6049866333007813	-2.537061767578125	0		-0.9942649536132813	0.2771413269042969	0		-0.5417742309570313	-2.969068359375	0		2.0434052734375	-0.7597625732421875	0		3.43356103515625	-0.7569830932617188	0		4.67545263671875	-0.46823580932617187	0		5.87441259765625	0.36012054443359376	0		-0.1894827880859375	5.901076171875	0		
-0.018751571655273438	1.6925999522209167E-4	0		0.5510968627929688	-2.533515380859375	0		-0.9942081909179687	0.27697503662109374	0		-0.5148397827148438	-2.9795859375	0		2.033016845703125	-0.7177780151367188	0		3.418766845703125	-0.7459387817382812	0		4.65048779296875	-0.4700550842285156	0		5.86936474609375	0.35204376220703126	0		-0.2396373291015625	5.88656884765625	0		
0.0011570489406585694	-0.0072609720230102535	0		0.579107177734375	-2.534048583984375	0		-0.994207275390625	0.2768020935058594	0		-0.5748986206054687	-2.984970458984375	0		2.0194422607421876	-0.685757568359375	0		3.364012451171875	-0.7273742065429688	0		4.6315849609375	-0.46295599365234374	0		5.85724853515625	0.34305767822265626	0		-0.15639212036132813	5.90631005859375	0		
-0.011709815979003906	0.006735919952392578	0		0.5680828857421875	-2.53307373046875	0		-0.9802088623046875	0.2804411926269531	0		-0.5280696411132813	-2.995760009765625	0		2.03583837890625	-0.6521317749023438	0		3.40518408203125	-0.7110674438476563	0		4.6356142578125	-0.4571572875976562	0		5.8702861328125	0.34974472045898436	0		-0.1744197998046875	5.91037255859375	0		
0.011134989738464355	0.002262415885925293	0		0.5830355224609375	-2.530439697265625	0		-0.994362548828125	0.276446044921875	0		-0.5441115112304687	-2.99272705078125	0		1.996281494140625	-0.6107720336914062	0		3.362248291015625	-0.6986575927734375	0		4.62555615234375	-0.4541710510253906	0		5.86197412109375	0.3337139892578125	0		-0.15758444213867187	5.9079765625	0		
-0.015008390426635742	0.002431658983230591	0		0.552224365234375	-2.506203125	0		-0.9945101318359375	0.27626806640625	0		-0.5282635498046875	-2.99511083984375	0		2.009348388671875	-0.595100341796875	0		3.33326708984375	-0.686426513671875	0		4.5995732421875	-0.44197027587890625	0		5.8528271484375	0.3337021179199219	0		-0.1928210144042969	5.9042626953125	0		
0.007765284061431885	-0.0010362809896469116	0		0.5510196533203126	-2.509352783203125	0		-1.005683349609375	0.2772366638183594	0		-0.56947412109375	-2.99874609375	0		1.958486083984375	-0.57058740234375	0		3.334309326171875	-0.6695824584960938	0		4.57640673828125	-0.44080123901367185	0		5.85263916015625	0.333580322265625	0		-0.20819467163085936	5.89329052734375	0		
-0.01945111846923828	-8.459489941596985E-4	0		0.56344189453125	-2.538677978515625	0		-1.0008526000976563	0.28100009155273437	0		-0.5509437255859375	-3.02015966796875	0		1.9524947509765624	-0.5536565551757813	0		3.322293212890625	-0.6545615844726562	0		4.5641923828125	-0.4407686767578125	0		5.84341845703125	0.3335843505859375	0		-0.17916462707519532	5.91574560546875	0		
0.01034022045135498	0.0016056480407714844	0		0.5276920776367188	-2.5023623046875	0		-0.9911142578125	0.2797044982910156	0		-0.5620439453125	-3.011177978515625	0		1.9505809326171875	-0.5287716674804688	0		3.2914482421875	-0.624286376953125	0		4.5580693359375	-0.43180718994140627	0		5.84317041015625	0.33347955322265627	0		-0.17946205139160157	5.915587890625	0		
-0.015921213150024413	0.001796138048171997	0		0.5534232177734375	-2.504845458984375	0		-1.0013665161132812	0.28067694091796874	0		-0.5215051879882813	-3.028865478515625	0		1.9515047607421876	-0.514916748046875	0		3.294255126953125	-0.6194444580078124	0		4.54500634765625	-0.4167457275390625	0		5.84290380859375	0.3333844909667969	0		-0.1959092254638672	5.90564697265625	0		
0.009803753852844238	0.0013167049884796143	0		0.5251766357421875	-2.504615478515625	0		-1.0016420288085937	0.280527099609375	0		-0.5726665649414062	-3.022346435546875	0		1.94532861328125	-0.5079608764648438	0		3.293366455078125	-0.5905428466796875	0		4.5447373046875	-0.41684274291992185	0		5.8426279296875	0.3332998352050781	0		-0.17730506896972656	5.90025732421875	0		
0.0024408419132232666	-0.005722393989562988	0		0.5498615112304688	-2.510066650390625	0		-0.9318578491210937	0.2844739685058594	0		-0.529095458984375	-3.037054931640625	0		1.9011561279296876	-0.5005002136230469	0		3.250468505859375	-0.5620838012695313	0		4.52478369140625	-0.39267080688476563	0		5.825353515625	0.33344741821289064	0		-0.19854206848144532	5.90739794921875	0		
